# Blender v2.79 (sub 0) OBJ File: 'weapons.blend'
# www.blender.org
mtllib Rocket.mtl
o weapon_rocket_Mesh_0253.001
v 0.012797 -0.005219 0.719184
v -0.008379 0.096055 0.324141
v 0.071050 0.083835 0.324141
v 0.114070 0.015957 0.324141
v 0.101851 -0.063471 0.324141
v 0.033973 -0.106492 0.324141
v -0.088476 -0.026395 0.324141
v -0.076257 0.053034 0.324141
v 0.178517 0.029433 -0.635247
v 0.178517 0.029433 -0.588217
v 0.077244 0.008257 -0.578812
v 0.086450 0.010182 -0.447132
v -0.021855 0.160501 -0.635247
v -0.021855 0.160501 -0.588217
v -0.000679 0.059228 -0.578812
v -0.002604 0.068435 -0.447132
v 0.047449 -0.170938 -0.635247
v 0.026273 -0.069665 -0.578812
v 0.047449 -0.170938 -0.588217
v 0.028198 -0.078872 -0.447132
v -0.152922 -0.039870 -0.635247
v -0.051649 -0.018694 -0.578812
v -0.152922 -0.039870 -0.588217
v -0.060856 -0.020619 -0.447132
v 0.049205 0.050440 -0.578812
v 0.012797 -0.005219 -0.324856
v 0.068456 -0.041626 -0.578812
v -0.023611 -0.060877 -0.578812
v -0.042862 0.031189 -0.578812
v -0.008379 0.096055 -0.259016
v 0.071050 0.083835 -0.259016
v 0.114070 0.015958 -0.259016
v 0.101851 -0.063471 -0.259016
v 0.033973 -0.106492 -0.259016
v -0.045455 -0.094273 -0.259016
v -0.045455 -0.094273 0.324141
v -0.088476 -0.026395 -0.259016
v -0.076257 0.053034 -0.259016
v -0.008379 0.096055 -0.259016
v -0.076257 0.053034 -0.259016
v 0.077244 0.008257 -0.578812
v 0.077244 0.008257 -0.578812
v 0.068456 -0.041626 -0.578812
v 0.071050 0.083835 -0.259016
v 0.114070 0.015958 -0.259016
v -0.000679 0.059228 -0.578812
v -0.000679 0.059228 -0.578812
v -0.042862 0.031189 -0.578812
v 0.049205 0.050440 -0.578812
v -0.088476 -0.026395 0.324141
v -0.076257 0.053034 0.324141
v -0.088476 -0.026395 -0.259016
v 0.114070 0.015957 0.324141
v 0.101851 -0.063471 0.324141
v 0.026273 -0.069665 -0.578812
v 0.026273 -0.069665 -0.578812
v 0.033973 -0.106492 0.324141
v -0.045455 -0.094273 0.324141
v -0.023611 -0.060877 -0.578812
v 0.101851 -0.063471 -0.259016
v -0.008379 0.096055 0.324141
v 0.071050 0.083835 0.324141
v 0.033973 -0.106492 -0.259016
v -0.045455 -0.094273 -0.259016
v -0.051649 -0.018694 -0.578812
v -0.051649 -0.018694 -0.578812
vt 0.257812 0.003906
vt 0.261719 0.082031
vt 0.257812 0.082031
vt 0.261719 0.082031
vt 0.257812 0.082031
vt 0.261719 0.082031
vt 0.257812 0.082031
vt 0.261719 0.082031
vt 0.257812 0.082031
vt 0.261719 0.003906
vt 0.261719 0.082031
vt 0.257812 0.082031
vt 0.261719 0.082031
vt 0.257812 0.082031
vt 0.261719 0.082031
vt 0.257812 0.082031
vt 0.261719 0.082031
vt 0.257812 0.082031
vt 0.246094 0.078125
vt 0.246094 0.035156
vt 0.253906 0.078125
vt 0.261719 0.035156
vt 0.246094 0.078125
vt 0.246094 0.035156
vt 0.253906 0.078125
vt 0.261719 0.035156
vt 0.253906 0.078125
vt 0.246094 0.078125
vt 0.261719 0.035156
vt 0.246094 0.035156
vt 0.253906 0.078125
vt 0.246094 0.078125
vt 0.261719 0.035156
vt 0.246094 0.035156
vt 0.257812 0.082031
vt 0.261719 0.003906
vt 0.261719 0.082031
vt 0.257812 0.082031
vt 0.261719 0.082031
vt 0.257812 0.082031
vt 0.261719 0.082031
vt 0.257812 0.082031
vt 0.261719 0.082031
vt 0.257812 0.082031
vt 0.261719 0.082031
vt 0.257812 0.082031
vt 0.261719 0.082031
vt 0.257812 0.082031
vt 0.261719 0.082031
vt 0.257812 0.082031
vt 0.261719 0.082031
vt 0.261719 0.082031
vt 0.261719 0.003906
vt 0.257812 0.003906
vt 0.257812 0.082031
vt 0.261719 0.082031
vt 0.261719 0.003906
vt 0.257812 0.003906
vt 0.257812 0.082031
vt 0.257812 0.082031
vt 0.257812 0.003906
vt 0.261719 0.003906
vt 0.261719 0.082031
vt 0.257812 0.082031
vt 0.257812 0.003906
vt 0.261719 0.003906
vt 0.261719 0.082031
vt 0.261719 0.082031
vt 0.261719 0.003906
vt 0.257812 0.003906
vt 0.257812 0.082031
vt 0.257812 0.082031
vt 0.257812 0.003906
vt 0.261719 0.003906
vt 0.261719 0.082031
vt 0.257812 0.082031
vt 0.257812 0.003906
vt 0.261719 0.003906
vt 0.261719 0.082031
vt 0.257812 0.082031
vt 0.257812 0.003906
vt 0.261719 0.003906
vt 0.261719 0.082031
vt 0.257812 0.082031
vt 0.257812 0.003906
vt 0.261719 0.003906
vt 0.261719 0.082031
vt 0.257812 0.082031
vt 0.257812 0.003906
vt 0.261719 0.003906
vt 0.261719 0.082031
vt 0.257812 0.082031
vt 0.257812 0.003906
vt 0.261719 0.003906
vt 0.261719 0.082031
vt 0.261719 0.082031
vt 0.261719 0.003906
vt 0.257812 0.003906
vt 0.257812 0.082031
vt 0.261719 0.082031
vt 0.261719 0.003906
vt 0.257812 0.003906
vt 0.257812 0.082031
vt 0.261719 0.082031
vt 0.261719 0.003906
vt 0.257812 0.003906
vt 0.257812 0.082031
vt 0.261719 0.082031
vt 0.261719 0.003906
vt 0.257812 0.003906
vt 0.257812 0.082031
vt 0.261719 0.082031
vt 0.261719 0.003906
vt 0.257812 0.003906
vt 0.257812 0.082031
vn 0.0000 0.0000 1.0000
vn 0.5286 0.8080 0.2601
vn -0.1980 0.9469 0.2533
vn 0.8080 -0.5286 0.2601
vn 0.9469 0.1980 0.2533
vn -0.5286 -0.8080 0.2601
vn 0.1980 -0.9469 0.2533
vn -0.8080 0.5286 0.2601
vn -0.9469 -0.1980 0.2533
vn -0.2047 0.9788 0.0000
vn -0.9788 -0.2047 0.0000
vn -0.5295 -0.8095 -0.2533
vn 0.0000 0.0000 -1.0000
vn 0.1981 -0.9475 -0.2510
vn -0.9475 -0.1981 -0.2510
vn -0.8095 0.5295 -0.2533
vn -0.1981 0.9475 -0.2510
vn 0.5295 0.8095 -0.2533
vn 0.9475 0.1981 -0.2510
vn 0.8095 -0.5295 -0.2533
vn -0.8368 0.5474 0.0000
vn 0.2047 -0.9788 0.0000
vn -0.5474 -0.8368 0.0000
vn 0.2032 -0.9719 -0.1191
vn -0.5434 -0.8307 -0.1216
vn -0.8307 0.5434 -0.1216
vn -0.2032 0.9719 -0.1191
vn 0.9788 0.2047 0.0000
vn 0.8368 -0.5474 0.0000
vn 0.5434 0.8307 -0.1216
vn 0.9719 0.2032 -0.1191
vn 0.8307 -0.5434 -0.1216
vn -0.9719 -0.2032 -0.1191
vn 0.5474 0.8368 0.0000
usemtl weapon1
s 1
f 1/1/1 3/2/2 2/3/3
f 1/1/1 54/4/4 53/5/5
f 1/1/1 58/6/6 6/7/7
f 1/1/1 8/8/8 50/9/9
f 1/10/1 53/11/5 3/12/2
f 1/10/1 6/13/7 54/14/4
f 1/10/1 50/15/9 58/16/6
f 1/10/1 2/17/3 8/18/8
f 9/19/10 42/20/10 10/21/10
f 12/22/10 10/21/10 42/20/10
f 13/23/11 15/24/11 14/25/11
f 16/26/11 14/25/11 15/24/11
f 17/27/11 19/28/11 55/29/11
f 20/30/11 55/29/11 19/28/11
f 21/31/10 23/32/10 65/33/10
f 24/34/10 65/33/10 23/32/10
f 49/35/12 26/36/13 47/37/14
f 41/38/15 26/36/13 49/39/12
f 43/40/16 26/36/13 41/41/15
f 56/42/17 26/36/13 43/43/16
f 59/44/18 26/36/13 56/45/17
f 22/46/19 26/36/13 59/47/18
f 48/48/20 26/36/13 22/49/19
f 47/50/14 26/36/13 48/51/20
f 40/52/21 51/53/21 61/54/10 39/55/10
f 63/56/22 57/57/22 36/58/23 35/59/23
f 18/60/24 34/61/24 64/62/25 28/63/25
f 29/64/26 38/65/26 30/66/27 46/67/27
f 32/68/28 4/69/28 5/70/29 60/71/29
f 25/72/30 44/73/30 45/74/31 11/75/31
f 27/76/32 33/77/32 34/78/24 18/79/24
f 28/80/25 64/81/25 52/82/33 66/83/33
f 66/84/33 52/85/33 38/86/26 29/87/26
f 11/88/31 45/89/31 33/90/32 27/91/32
f 46/92/27 30/93/27 44/94/30 25/95/30
f 35/96/23 36/97/23 7/98/11 37/99/11
f 60/100/29 5/101/29 57/102/22 63/103/22
f 37/104/11 7/105/11 51/106/21 40/107/21
f 31/108/34 62/109/34 4/110/28 32/111/28
f 39/112/10 61/113/10 62/114/34 31/115/34
