# MagicaVoxel @ Ephtracy

# group
o 

# material
mtllib Block.mtl
usemtl palette

# normals
vn -1 0 0
vn 1 0 0
vn 0 0 1
vn 0 0 -1
vn 0 -1 0
vn 0 1 0

# texcoords
vt 0.0371094 0.5
vt 0.0878906 0.5

# verts
v -4.9 -3 4.1
v -4.9 -3 -4.3
v -4.9 -2.6 4.5
v -4.9 -2.6 4.1
v -4.9 -2.6 -4.3
v -4.9 -2.6 -4.7
v -4.9 6.6 4.5
v -4.9 6.6 4.1
v -4.9 6.6 -4.3
v -4.9 6.6 -4.7
v -4.9 7 4.1
v -4.9 7 -4.3
v -4.5 -3 4.5
v -4.5 -3 4.1
v -4.5 -3 -4.3
v -4.5 -3 -4.7
v -4.5 -2.6 4.9
v -4.5 -2.6 4.5
v -4.5 -2.6 4.1
v -4.5 -2.6 -4.3
v -4.5 -2.6 -4.7
v -4.5 -2.6 -5.1
v -4.5 6.6 4.9
v -4.5 6.6 4.5
v -4.5 6.6 4.1
v -4.5 6.6 -4.3
v -4.5 6.6 -4.7
v -4.5 6.6 -5.1
v -4.5 7 4.5
v -4.5 7 4.1
v -4.5 7 -4.3
v -4.5 7 -4.7
v -4.1 -3 4.9
v -4.1 -3 4.5
v -4.1 -3 -4.7
v -4.1 -3 -5.1
v -4.1 -2.6 4.9
v -4.1 -2.6 4.5
v -4.1 -2.6 -4.7
v -4.1 -2.6 -5.1
v -4.1 6.6 4.9
v -4.1 6.6 4.5
v -4.1 6.6 -4.7
v -4.1 6.6 -5.1
v -4.1 7 4.9
v -4.1 7 4.5
v -4.1 7 -4.7
v -4.1 7 -5.1
v 4.3 -3 4.9
v 4.3 -3 4.5
v 4.3 -3 -4.7
v 4.3 -3 -5.1
v 4.3 -2.6 4.9
v 4.3 -2.6 4.5
v 4.3 -2.6 -4.7
v 4.3 -2.6 -5.1
v 4.3 6.6 4.9
v 4.3 6.6 4.5
v 4.3 6.6 -4.7
v 4.3 6.6 -5.1
v 4.3 7 4.9
v 4.3 7 4.5
v 4.3 7 -4.7
v 4.3 7 -5.1
v 4.7 -3 4.5
v 4.7 -3 4.1
v 4.7 -3 -4.3
v 4.7 -3 -4.7
v 4.7 -2.6 4.9
v 4.7 -2.6 4.5
v 4.7 -2.6 4.1
v 4.7 -2.6 -4.3
v 4.7 -2.6 -4.7
v 4.7 -2.6 -5.1
v 4.7 6.6 4.9
v 4.7 6.6 4.5
v 4.7 6.6 4.1
v 4.7 6.6 -4.3
v 4.7 6.6 -4.7
v 4.7 6.6 -5.1
v 4.7 7 4.5
v 4.7 7 4.1
v 4.7 7 -4.3
v 4.7 7 -4.7
v 5.1 -3 4.1
v 5.1 -3 -4.3
v 5.1 -2.6 4.5
v 5.1 -2.6 4.1
v 5.1 -2.6 -4.3
v 5.1 -2.6 -4.7
v 5.1 6.6 4.5
v 5.1 6.6 4.1
v 5.1 6.6 -4.3
v 5.1 6.6 -4.7
v 5.1 7 4.1
v 5.1 7 -4.3
v -4.5 -2.6 4.9
v -4.5 6.6 4.9
v -4.1 -3 4.9
v -4.1 -2.6 4.9
v -4.1 6.6 4.9
v -4.1 7 4.9
v 4.3 -3 4.9
v 4.3 -2.6 4.9
v 4.3 6.6 4.9
v 4.3 7 4.9
v 4.7 -2.6 4.9
v 4.7 6.6 4.9
v -4.9 -2.6 4.5
v -4.9 6.6 4.5
v -4.5 -3 4.5
v -4.5 -2.6 4.5
v -4.5 6.6 4.5
v -4.5 7 4.5
v -4.1 -3 4.5
v -4.1 -2.6 4.5
v -4.1 6.6 4.5
v -4.1 7 4.5
v 4.3 -3 4.5
v 4.3 -2.6 4.5
v 4.3 6.6 4.5
v 4.3 7 4.5
v 4.7 -3 4.5
v 4.7 -2.6 4.5
v 4.7 6.6 4.5
v 4.7 7 4.5
v 5.1 -2.6 4.5
v 5.1 6.6 4.5
v -4.9 -3 4.1
v -4.9 -2.6 4.1
v -4.9 6.6 4.1
v -4.9 7 4.1
v -4.5 -3 4.1
v -4.5 -2.6 4.1
v -4.5 6.6 4.1
v -4.5 7 4.1
v 4.7 -3 4.1
v 4.7 -2.6 4.1
v 4.7 6.6 4.1
v 4.7 7 4.1
v 5.1 -3 4.1
v 5.1 -2.6 4.1
v 5.1 6.6 4.1
v 5.1 7 4.1
v -4.9 -3 -4.3
v -4.9 -2.6 -4.3
v -4.9 6.6 -4.3
v -4.9 7 -4.3
v -4.5 -3 -4.3
v -4.5 -2.6 -4.3
v -4.5 6.6 -4.3
v -4.5 7 -4.3
v 4.7 -3 -4.3
v 4.7 -2.6 -4.3
v 4.7 6.6 -4.3
v 4.7 7 -4.3
v 5.1 -3 -4.3
v 5.1 -2.6 -4.3
v 5.1 6.6 -4.3
v 5.1 7 -4.3
v -4.9 -2.6 -4.7
v -4.9 6.6 -4.7
v -4.5 -3 -4.7
v -4.5 -2.6 -4.7
v -4.5 6.6 -4.7
v -4.5 7 -4.7
v -4.1 -3 -4.7
v -4.1 -2.6 -4.7
v -4.1 6.6 -4.7
v -4.1 7 -4.7
v 4.3 -3 -4.7
v 4.3 -2.6 -4.7
v 4.3 6.6 -4.7
v 4.3 7 -4.7
v 4.7 -3 -4.7
v 4.7 -2.6 -4.7
v 4.7 6.6 -4.7
v 4.7 7 -4.7
v 5.1 -2.6 -4.7
v 5.1 6.6 -4.7
v -4.5 -2.6 -5.1
v -4.5 6.6 -5.1
v -4.1 -3 -5.1
v -4.1 -2.6 -5.1
v -4.1 6.6 -5.1
v -4.1 7 -5.1
v 4.3 -3 -5.1
v 4.3 -2.6 -5.1
v 4.3 6.6 -5.1
v 4.3 7 -5.1
v 4.7 -2.6 -5.1
v 4.7 6.6 -5.1
v -4.1 -3 4.9
v 4.3 -3 4.9
v -4.5 -3 4.5
v -4.1 -3 4.5
v 4.3 -3 4.5
v 4.7 -3 4.5
v -4.9 -3 4.1
v -4.5 -3 4.1
v 4.7 -3 4.1
v 5.1 -3 4.1
v -4.9 -3 -4.3
v -4.5 -3 -4.3
v 4.7 -3 -4.3
v 5.1 -3 -4.3
v -4.5 -3 -4.7
v -4.1 -3 -4.7
v 4.3 -3 -4.7
v 4.7 -3 -4.7
v -4.1 -3 -5.1
v 4.3 -3 -5.1
v -4.5 -2.6 4.9
v -4.1 -2.6 4.9
v 4.3 -2.6 4.9
v 4.7 -2.6 4.9
v -4.9 -2.6 4.5
v -4.5 -2.6 4.5
v -4.1 -2.6 4.5
v 4.3 -2.6 4.5
v 4.7 -2.6 4.5
v 5.1 -2.6 4.5
v -4.9 -2.6 4.1
v -4.5 -2.6 4.1
v 4.7 -2.6 4.1
v 5.1 -2.6 4.1
v -4.9 -2.6 -4.3
v -4.5 -2.6 -4.3
v 4.7 -2.6 -4.3
v 5.1 -2.6 -4.3
v -4.9 -2.6 -4.7
v -4.5 -2.6 -4.7
v -4.1 -2.6 -4.7
v 4.3 -2.6 -4.7
v 4.7 -2.6 -4.7
v 5.1 -2.6 -4.7
v -4.5 -2.6 -5.1
v -4.1 -2.6 -5.1
v 4.3 -2.6 -5.1
v 4.7 -2.6 -5.1
v -4.5 6.6 4.9
v -4.1 6.6 4.9
v 4.3 6.6 4.9
v 4.7 6.6 4.9
v -4.9 6.6 4.5
v -4.5 6.6 4.5
v -4.1 6.6 4.5
v 4.3 6.6 4.5
v 4.7 6.6 4.5
v 5.1 6.6 4.5
v -4.9 6.6 4.1
v -4.5 6.6 4.1
v 4.7 6.6 4.1
v 5.1 6.6 4.1
v -4.9 6.6 -4.3
v -4.5 6.6 -4.3
v 4.7 6.6 -4.3
v 5.1 6.6 -4.3
v -4.9 6.6 -4.7
v -4.5 6.6 -4.7
v -4.1 6.6 -4.7
v 4.3 6.6 -4.7
v 4.7 6.6 -4.7
v 5.1 6.6 -4.7
v -4.5 6.6 -5.1
v -4.1 6.6 -5.1
v 4.3 6.6 -5.1
v 4.7 6.6 -5.1
v -4.1 7 4.9
v 4.3 7 4.9
v -4.5 7 4.5
v -4.1 7 4.5
v 4.3 7 4.5
v 4.7 7 4.5
v -4.9 7 4.1
v -4.5 7 4.1
v 4.7 7 4.1
v 5.1 7 4.1
v -4.9 7 -4.3
v -4.5 7 -4.3
v 4.7 7 -4.3
v 5.1 7 -4.3
v -4.5 7 -4.7
v -4.1 7 -4.7
v 4.3 7 -4.7
v 4.7 7 -4.7
v -4.1 7 -5.1
v 4.3 7 -5.1

# faces
f 4/2/1 2/2/1 1/2/1
f 5/2/1 2/2/1 4/2/1
f 7/2/1 4/2/1 3/2/1
f 7/2/1 6/2/1 5/2/1
f 7/2/1 5/2/1 4/2/1
f 8/2/1 6/2/1 7/2/1
f 9/2/1 6/2/1 8/2/1
f 10/2/1 6/2/1 9/2/1
f 11/1/1 9/1/1 8/1/1
f 12/1/1 9/1/1 11/1/1
f 18/2/1 14/2/1 13/2/1
f 19/2/1 14/2/1 18/2/1
f 20/2/1 16/2/1 15/2/1
f 21/2/1 16/2/1 20/2/1
f 23/2/1 18/2/1 17/2/1
f 24/2/1 18/2/1 23/2/1
f 27/2/1 22/2/1 21/2/1
f 28/2/1 22/2/1 27/2/1
f 29/1/1 25/1/1 24/1/1
f 30/1/1 25/1/1 29/1/1
f 31/1/1 27/1/1 26/1/1
f 32/1/1 27/1/1 31/1/1
f 37/2/1 34/2/1 33/2/1
f 38/2/1 34/2/1 37/2/1
f 39/2/1 36/2/1 35/2/1
f 40/2/1 36/2/1 39/2/1
f 45/1/1 42/1/1 41/1/1
f 46/1/1 42/1/1 45/1/1
f 47/1/1 44/1/1 43/1/1
f 48/1/1 44/1/1 47/1/1
f 49/2/2 50/2/2 53/2/2
f 53/2/2 50/2/2 54/2/2
f 51/2/2 52/2/2 55/2/2
f 55/2/2 52/2/2 56/2/2
f 57/1/2 58/1/2 61/1/2
f 61/1/2 58/1/2 62/1/2
f 59/1/2 60/1/2 63/1/2
f 63/1/2 60/1/2 64/1/2
f 65/2/2 66/2/2 70/2/2
f 70/2/2 66/2/2 71/2/2
f 67/2/2 68/2/2 72/2/2
f 72/2/2 68/2/2 73/2/2
f 69/2/2 70/2/2 75/2/2
f 75/2/2 70/2/2 76/2/2
f 73/2/2 74/2/2 79/2/2
f 79/2/2 74/2/2 80/2/2
f 76/1/2 77/1/2 81/1/2
f 81/1/2 77/1/2 82/1/2
f 78/1/2 79/1/2 83/1/2
f 83/1/2 79/1/2 84/1/2
f 85/2/2 86/2/2 88/2/2
f 88/2/2 86/2/2 89/2/2
f 87/2/2 88/2/2 91/2/2
f 89/2/2 90/2/2 91/2/2
f 88/2/2 89/2/2 91/2/2
f 91/2/2 90/2/2 92/2/2
f 92/2/2 90/2/2 93/2/2
f 93/2/2 90/2/2 94/2/2
f 92/1/2 93/1/2 95/1/2
f 95/1/2 93/1/2 96/1/2
f 100/2/3 98/2/3 97/2/3
f 101/2/3 98/2/3 100/2/3
f 103/2/3 100/2/3 99/2/3
f 103/2/3 101/2/3 100/2/3
f 104/2/3 101/2/3 103/2/3
f 105/1/3 102/1/3 101/1/3
f 105/2/3 101/2/3 104/2/3
f 106/1/3 102/1/3 105/1/3
f 107/2/3 105/2/3 104/2/3
f 108/2/3 105/2/3 107/2/3
f 112/2/3 110/2/3 109/2/3
f 113/2/3 110/2/3 112/2/3
f 115/2/3 112/2/3 111/2/3
f 116/2/3 112/2/3 115/2/3
f 117/1/3 114/1/3 113/1/3
f 118/1/3 114/1/3 117/1/3
f 123/2/3 120/2/3 119/2/3
f 124/2/3 120/2/3 123/2/3
f 125/1/3 122/1/3 121/1/3
f 126/1/3 122/1/3 125/1/3
f 127/2/3 125/2/3 124/2/3
f 128/2/3 125/2/3 127/2/3
f 133/2/3 130/2/3 129/2/3
f 134/2/3 130/2/3 133/2/3
f 135/1/3 132/1/3 131/1/3
f 136/1/3 132/1/3 135/1/3
f 141/2/3 138/2/3 137/2/3
f 142/2/3 138/2/3 141/2/3
f 143/1/3 140/1/3 139/1/3
f 144/1/3 140/1/3 143/1/3
f 145/2/4 146/2/4 149/2/4
f 149/2/4 146/2/4 150/2/4
f 147/1/4 148/1/4 151/1/4
f 151/1/4 148/1/4 152/1/4
f 153/2/4 154/2/4 157/2/4
f 157/2/4 154/2/4 158/2/4
f 155/1/4 156/1/4 159/1/4
f 159/1/4 156/1/4 160/1/4
f 161/2/4 162/2/4 164/2/4
f 164/2/4 162/2/4 165/2/4
f 163/2/4 164/2/4 167/2/4
f 167/2/4 164/2/4 168/2/4
f 165/1/4 166/1/4 169/1/4
f 169/1/4 166/1/4 170/1/4
f 171/2/4 172/2/4 175/2/4
f 175/2/4 172/2/4 176/2/4
f 173/1/4 174/1/4 177/1/4
f 177/1/4 174/1/4 178/1/4
f 176/2/4 177/2/4 179/2/4
f 179/2/4 177/2/4 180/2/4
f 181/2/4 182/2/4 184/2/4
f 184/2/4 182/2/4 185/2/4
f 183/2/4 184/2/4 187/2/4
f 184/2/4 185/2/4 187/2/4
f 187/2/4 185/2/4 188/2/4
f 185/1/4 186/1/4 189/1/4
f 188/2/4 185/2/4 189/2/4
f 189/1/4 186/1/4 190/1/4
f 188/2/4 189/2/4 191/2/4
f 191/2/4 189/2/4 192/2/4
f 196/2/5 194/2/5 193/2/5
f 197/2/5 194/2/5 196/2/5
f 200/2/5 196/2/5 195/2/5
f 200/2/5 198/2/5 197/2/5
f 200/2/5 197/2/5 196/2/5
f 201/2/5 198/2/5 200/2/5
f 203/2/5 200/2/5 199/2/5
f 203/2/5 202/2/5 201/2/5
f 203/2/5 201/2/5 200/2/5
f 204/2/5 202/2/5 203/2/5
f 205/2/5 202/2/5 204/2/5
f 206/2/5 202/2/5 205/2/5
f 207/2/5 205/2/5 204/2/5
f 208/2/5 205/2/5 207/2/5
f 209/2/5 205/2/5 208/2/5
f 210/2/5 205/2/5 209/2/5
f 211/2/5 209/2/5 208/2/5
f 212/2/5 209/2/5 211/2/5
f 218/2/5 214/2/5 213/2/5
f 219/2/5 214/2/5 218/2/5
f 220/2/5 216/2/5 215/2/5
f 221/2/5 216/2/5 220/2/5
f 223/2/5 218/2/5 217/2/5
f 224/2/5 218/2/5 223/2/5
f 225/2/5 222/2/5 221/2/5
f 226/2/5 222/2/5 225/2/5
f 231/2/5 228/2/5 227/2/5
f 232/2/5 228/2/5 231/2/5
f 235/2/5 230/2/5 229/2/5
f 236/2/5 230/2/5 235/2/5
f 237/2/5 233/2/5 232/2/5
f 238/2/5 233/2/5 237/2/5
f 239/2/5 235/2/5 234/2/5
f 240/2/5 235/2/5 239/2/5
f 241/2/6 242/2/6 246/2/6
f 246/2/6 242/2/6 247/2/6
f 243/2/6 244/2/6 248/2/6
f 248/2/6 244/2/6 249/2/6
f 245/2/6 246/2/6 251/2/6
f 251/2/6 246/2/6 252/2/6
f 249/2/6 250/2/6 253/2/6
f 253/2/6 250/2/6 254/2/6
f 255/2/6 256/2/6 259/2/6
f 259/2/6 256/2/6 260/2/6
f 257/2/6 258/2/6 263/2/6
f 263/2/6 258/2/6 264/2/6
f 260/2/6 261/2/6 265/2/6
f 265/2/6 261/2/6 266/2/6
f 262/2/6 263/2/6 267/2/6
f 267/2/6 263/2/6 268/2/6
f 269/1/6 270/1/6 272/1/6
f 272/1/6 270/1/6 273/1/6
f 271/1/6 272/1/6 276/1/6
f 273/1/6 274/1/6 276/1/6
f 272/1/6 273/1/6 276/1/6
f 276/1/6 274/1/6 277/1/6
f 275/1/6 276/1/6 279/1/6
f 277/1/6 278/1/6 279/1/6
f 276/1/6 277/1/6 279/1/6
f 279/1/6 278/1/6 280/1/6
f 280/1/6 278/1/6 281/1/6
f 281/1/6 278/1/6 282/1/6
f 280/1/6 281/1/6 283/1/6
f 283/1/6 281/1/6 284/1/6
f 284/1/6 281/1/6 285/1/6
f 285/1/6 281/1/6 286/1/6
f 284/1/6 285/1/6 287/1/6
f 287/1/6 285/1/6 288/1/6
